<svg width="86" height="43" viewBox="0 0 86 43" fill="none" xmlns="http://www.w3.org/2000/svg">
<path d="M36.932 21.8064L29.6805 21.7226C29.6805 19.2903 30.1864 15.3484 33.3062 15.3484C36.426 15.3484 36.932 19.4581 36.932 21.8064ZM85.8373 31.3677V29.5226H79.8506V32.8774C79.8506 33.8 79.429 34.8903 78.3329 34.8903C77.2367 34.8903 76.8994 33.8 76.8994 33.0452V16.6065H85.2471V10.0645H76.8994V0H71.3343C71.25 4.86452 70.2382 10.0645 64.3358 10.0645C63.8299 10.0645 63.324 10.0645 62.7337 10.0645C62.3965 10.0645 62.1435 10.0645 61.8062 10.0645V11.071C59.7826 9.8129 57.9275 8.97419 55.3979 8.97419C49.4956 8.97419 45.8698 13.9226 45.8698 19.4581C45.8698 32.0387 59.7826 25.4968 59.7826 32.3742C59.7826 34.471 58.7707 35.729 56.5784 35.729C53.3743 35.729 52.1095 32.2903 51.9408 29.5226H46.0385V40.929H51.9408V39.671C54.2175 40.6774 56.4098 41.8516 59.0237 41.8516C64.3358 41.8516 68.2145 36.2323 68.2145 31.2C68.2145 30.6129 68.2145 30.1097 68.0459 29.4387C67.3713 25.2452 64.8417 22.0581 60.6258 21.2194C58.2648 20.8 54.3018 20.8 54.3018 17.6129C54.3018 16.1871 55.3979 14.7613 56.8314 14.7613C59.9512 14.7613 61.216 17.4452 61.216 20.129H66.9497V16.6065H69.3107V32.3742C69.3107 37.1548 72.0932 42.0194 77.4897 42.0194C82.9704 42.0194 85.8373 36.3161 85.8373 31.3677ZM45.5326 27.8452C45.5326 27.6774 45.4482 27.4258 45.4482 27.2581C45.4482 26.9226 45.5326 26.5032 45.5326 26.1677C45.5326 18.6194 42.3284 8.89032 33.1376 8.89032C32.463 8.89032 31.8728 8.97419 31.1982 9.05807C24.537 9.8129 21.1642 18.3677 21.1642 24.4064C21.1642 26 21.3328 27.929 21.5015 29.7742H16.9482V33.2968C16.9482 34.2194 16.611 35.5613 15.4305 35.5613C14.25 35.5613 13.8284 34.471 13.8284 33.5484V16.7742H21.8388V10.0645H13.7441V0H8.26332V0.503224C8.26332 5.7871 5.81805 10.2323 0 10.2323V16.9419H5.98669V31.6194C5.98669 37.4064 8.179 42.6903 14.8402 42.6903C19.0562 42.6903 22.5133 38.8322 22.8506 34.8903C24.537 39.1677 28.753 42.0194 33.4749 42.0194C40.7263 42.0194 44.5207 36.1484 45.1953 29.5226H38.8713C38.8713 32.0387 37.3536 34.8903 34.4867 34.8903C32.6317 34.8903 31.1139 33.7161 30.5237 32.0387C30.1021 31.3677 29.8491 30.1935 29.8491 29.5226V27.8452H45.5326Z" fill="#F25B24"/>
</svg>
